<?xml version="1.0" encoding="utf-8"?>
<!-- Generator: Adobe Illustrator 18.0.0, SVG Export Plug-In . SVG Version: 6.00 Build 0)  -->
<!DOCTYPE svg PUBLIC "-//W3C//DTD SVG 1.1//EN" "http://www.w3.org/Graphics/SVG/1.1/DTD/svg11.dtd">
<svg version="1.1" id="Layer_1" xmlns="http://www.w3.org/2000/svg" xmlns:xlink="http://www.w3.org/1999/xlink" x="0px" y="0px"
	 viewBox="0 0 32.5 34" enable-background="new 0 0 32.5 34" xml:space="preserve">
<g>
	<path fill="#C5C9CB" d="M26.9,11.5h-2.2h-17H5.6c-1,0-1.8,0.8-1.8,1.8v6.9c0,1,0.8,1.8,1.8,1.8h2.2v-4.3h17v4.3h2.2
		c1,0,1.8-0.8,1.8-1.8v-6.9C28.7,12.3,27.9,11.5,26.9,11.5z"/>
	<rect x="8.5" y="4.8" fill="#C5C9CB" width="15.5" height="6"/>
	<path fill="#C5C9CB" d="M8.5,21.9v0.4v0.4v6.6H24v-6.6v-0.4v-0.4v-3.6H8.5V21.9z M22.2,26.2H10.3v-0.8h11.9V26.2z M22.2,23.1H10.3
		v-0.5v-0.3h11.9v0.3V23.1z"/>
</g>
</svg>
