<?xml version="1.0" encoding="utf-8"?>
<!-- Generator: Adobe Illustrator 18.0.0, SVG Export Plug-In . SVG Version: 6.00 Build 0)  -->
<!DOCTYPE svg PUBLIC "-//W3C//DTD SVG 1.1//EN" "http://www.w3.org/Graphics/SVG/1.1/DTD/svg11.dtd">
<svg version="1.1" id="Layer_1" xmlns="http://www.w3.org/2000/svg" xmlns:xlink="http://www.w3.org/1999/xlink" x="0px" y="0px"
	 viewBox="0 0 30.5 37.2" enable-background="new 0 0 30.5 37.2" xml:space="preserve">
<g>
	<path fill="#DBD9D9" d="M16.8,24l0-0.3c0-0.1,0-0.3,0-0.4l0-0.4h-2.8l0,0.4c0,0.1,0,0.3,0,0.4l0,0.3c0,0.2,0,0.4,0,0.6v0.9
		c0,0.2,0,0.4,0,0.6l0,0.3c0,0.6,0.1,1.3,0.1,1.9l0,0.3c0,0.2,0,0.4,0,0.6c0,0.3,0.1,0.6,0.2,0.8c0.1,0.3,0.1,0.5,0.2,0.7
		c0.1,0.2,0.2,0.4,0.3,0.5c0.2,0.3,0.3,0.5,0.3,0.5l0.3,0.4l0.3-0.4c0,0,0.1-0.2,0.3-0.5c0.1-0.2,0.2-0.3,0.3-0.5
		c0.1-0.2,0.2-0.4,0.2-0.7c0.1-0.3,0.1-0.5,0.2-0.8c0-0.2,0-0.4,0-0.6l0-0.3c0-0.6,0.1-1.2,0.1-1.9l0-0.3c0-0.2,0-0.4,0-0.6v-0.9
		C16.8,24.4,16.8,24.2,16.8,24z"/>
	<g>
		<path fill="#DBD9D9" d="M23.1,21.4C23.1,21.4,23.1,21.5,23.1,21.4C23.1,21.5,23.1,21.4,23.1,21.4z"/>
		<path fill="#DBD9D9" d="M7.5,21.6l0-0.1C7.5,21.5,7.5,21.5,7.5,21.6z"/>
		<path fill="#DBD9D9" d="M23.1,21.5C23.1,21.5,23.1,21.4,23.1,21.5c0-0.1,0-0.1,0-0.1c0-0.3-0.2-0.6-2.1-1.9
			c-0.4-0.3-0.5-0.6-0.6-0.9l-0.8-4.1l-0.3-2.8c0-0.3,0.2-0.7,0.4-0.9l1.1-0.7c0.4-0.3,0.9-0.9,0.9-1.4c0-0.2-0.1-0.4-0.2-0.6
			c-0.2-0.3-0.7-0.4-1.1-0.4H10.2C9.7,7.7,9.3,7.9,9,8.2C8.9,8.3,8.8,8.5,8.8,8.8c0,0.6,0.7,1.1,0.9,1.3l1.1,0.8
			c0.3,0.2,0.5,0.6,0.4,0.8L11,14.5l-0.9,4.2c0,0.3-0.3,0.8-0.5,0.9c-2.3,1.2-2.2,1.4-2.2,1.8l0,0.1c0.1,0.1,0.2,0.3,0.7,0.3h14
			C22.8,21.9,23,21.7,23.1,21.5z"/>
		<path fill="#DBD9D9" d="M23.1,21.4C23.1,21.4,23.1,21.4,23.1,21.4C23.1,21.4,23.1,21.4,23.1,21.4z"/>
	</g>
</g>
</svg>
